<svg width="30" height="35" viewBox="0 0 30 35" fill="none" xmlns="http://www.w3.org/2000/svg">
<path d="M3.75 34.5037C2.71875 34.5037 1.83563 34.1837 1.10063 33.5436C0.365628 32.9036 -0.00124682 32.1351 3.18336e-06 31.2382V14.911C3.18336e-06 14.013 0.367503 13.244 1.1025 12.6039C1.8375 11.9639 2.72 11.6444 3.75 11.6455H5.625V8.38009C5.625 6.12148 6.53938 4.19596 8.36813 2.60351C10.1969 1.01105 12.4075 0.215374 15 0.216462C17.5938 0.216462 19.805 1.01269 21.6337 2.60514C23.4625 4.19759 24.3762 6.12257 24.375 8.38009V11.6455H26.25C27.2812 11.6455 28.1644 11.9655 28.8994 12.6056C29.6344 13.2456 30.0012 14.0141 30 14.911V31.2382C30 32.1362 29.6325 32.9052 28.8975 33.5453C28.1625 34.1853 27.28 34.5048 26.25 34.5037H3.75ZM15 26.3401C16.0312 26.3401 16.9144 26.02 17.6494 25.38C18.3844 24.74 18.7512 23.9715 18.75 23.0746C18.75 22.1766 18.3825 21.4076 17.6475 20.7676C16.9125 20.1275 16.03 19.8081 15 19.8092C13.9688 19.8092 13.0856 20.1292 12.3506 20.7692C11.6156 21.4092 11.2488 22.1777 11.25 23.0746C11.25 23.9726 11.6175 24.7416 12.3525 25.3816C13.0875 26.0217 13.97 26.3411 15 26.3401ZM9.375 11.6455H20.625V8.38009C20.625 7.01948 20.0781 5.86297 18.9844 4.91055C17.8906 3.95812 16.5625 3.48191 15 3.48191C13.4375 3.48191 12.1094 3.95812 11.0156 4.91055C9.92188 5.86297 9.375 7.01948 9.375 8.38009V11.6455Z" fill="#D83A3A"/>
</svg>
