<svg width="28" height="16" viewBox="0 0 28 16" fill="none" xmlns="http://www.w3.org/2000/svg">
<path d="M13.75 0.292511C7.5 0.292511 2.1625 3.42878 0 7.85587C2.1625 12.283 7.5 15.4192 13.75 15.4192C20 15.4192 25.3375 12.283 27.5 7.85587C25.3375 3.42878 20 0.292511 13.75 0.292511ZM13.75 12.8981C10.3 12.8981 7.5 10.6392 7.5 7.85587C7.5 5.07255 10.3 2.81363 13.75 2.81363C17.2 2.81363 20 5.07255 20 7.85587C20 10.6392 17.2 12.8981 13.75 12.8981ZM13.75 4.83053C11.675 4.83053 10 6.18185 10 7.85587C10 9.52989 11.675 10.8812 13.75 10.8812C15.825 10.8812 17.5 9.52989 17.5 7.85587C17.5 6.18185 15.825 4.83053 13.75 4.83053Z" fill="#D83A3A"/>
</svg>
