<svg width="36" height="37" viewBox="0 0 36 37" fill="none" xmlns="http://www.w3.org/2000/svg">
<path fill-rule="evenodd" clip-rule="evenodd" d="M3 36.8279C3 36.8279 0 36.8279 0 33.8025C0 30.7772 3 21.7012 18 21.7012C33 21.7012 36 30.7772 36 33.8025C36 36.8279 33 36.8279 33 36.8279H3ZM18 18.6758C20.3869 18.6758 22.6761 17.7196 24.364 16.0175C26.0518 14.3154 27 12.0069 27 9.59979C27 7.19267 26.0518 4.88415 24.364 3.18207C22.6761 1.47998 20.3869 0.523758 18 0.523758C15.6131 0.523758 13.3239 1.47998 11.636 3.18207C9.94821 4.88415 9 7.19267 9 9.59979C9 12.0069 9.94821 14.3154 11.636 16.0175C13.3239 17.7196 15.6131 18.6758 18 18.6758Z" fill="#D83A3A"/>
</svg>
